<?xml version="1.0" ?><svg viewBox="0 0 100 100" xmlns="http://www.w3.org/2000/svg"><title/><g data-name="Layer 2" id="Layer_2"><path d="M50.16,74.89c-24.48,0-44.43-20.31-44.63-20.51L5,53.83l.39-.65c13.76-23.3,22.09-28.07,30.35-28.07,6.87,0,12.53,4.35,14.26,5.83,1.73-1.48,7.39-5.83,14.26-5.83,8.27,0,16.59,4.77,30.35,28.07l.38.65-.52.54C94.29,54.58,74.64,74.89,50.16,74.89ZM7.49,53.52C10.78,56.68,28.73,72.9,50.16,72.9S89.28,56.69,92.51,53.53C79.47,31.61,71.78,27.1,64.26,27.1c-7.32,0-13.37,5.7-13.43,5.75l-.29.28h-1.1l-.29-.27C49.11,32.8,43,27.1,35.74,27.1,28.23,27.1,20.53,31.61,7.49,53.52Z"/><path d="M49.95,56.14A74.17,74.17,0,0,1,23.16,51l-1.63-.7,1.45-1c8.34-5.9,13.35-7.11,18.3-7.11a26.62,26.62,0,0,1,8.57,1.48,26.61,26.61,0,0,1,8.57-1.48c5,0,10,1.21,18.3,7.11l1.44,1L76.55,51A72.49,72.49,0,0,1,49.95,56.14Z"/></g></svg>