<?xml version="1.0" ?><svg style="enable-background:new 0 0 512 512;" version="1.1" viewBox="0 0 512 512" xml:space="preserve" xmlns="http://www.w3.org/2000/svg" xmlns:xlink="http://www.w3.org/1999/xlink"><g id="_x34__x2C__Error_x2C__notice_x2C__warning_x2C__virus"><g id="XMLID_1452_"><g id="XMLID_1453_"><path d="M329.02,98.127C314.289,74.479,288.86,60.361,261,60.361c-27.861,0-53.29,14.118-68.021,37.766     L57.264,315.988c-15.383,24.694-16.167,55.837-2.045,81.273c14.123,25.437,40.97,41.238,70.064,41.238h271.434     c29.095,0,55.941-15.802,70.064-41.238c14.124-25.436,13.341-56.578-2.043-81.273L329.02,98.127z M458.038,392.408     c-12.36,22.262-35.857,36.092-61.321,36.092H125.283c-25.464,0-48.961-13.83-61.322-36.092     c-12.359-22.263-11.673-49.52,1.791-71.133l135.716-217.861C214.36,82.718,236.615,70.361,261,70.361     c24.384,0,46.639,12.356,59.532,33.053l135.717,217.861C469.713,342.89,470.398,370.146,458.038,392.408z" id="XMLID_1474_"/><path d="M290.825,121.921c-6.46-10.369-17.609-16.56-29.825-16.56c-12.216,0-23.365,6.191-29.825,16.56     L95.458,339.782c-14.592,23.423,2.224,53.718,29.825,53.718h271.434c27.598,0,44.42-30.289,29.825-53.718L290.825,121.921z      M396.717,383.5H125.283c-19.742,0-31.779-21.669-21.337-38.431l135.717-217.861c9.843-15.8,32.837-15.79,42.674,0     l135.717,217.861C428.493,361.825,416.465,383.5,396.717,383.5z" id="XMLID_1471_"/><path d="M261,163.5c-13.785,0-25,11.215-25,25v85c0,13.785,11.215,25,25,25c13.785,0,25-11.215,25-25v-85     C286,174.715,274.785,163.5,261,163.5z M276,273.5c0,8.272-6.729,15-15,15c-8.272,0-15-6.728-15-15v-85c0-8.271,6.728-15,15-15     c8.271,0,15,6.729,15,15V273.5z" id="XMLID_1468_"/><path d="M261,313.5c-13.785,0-25,11.215-25,25s11.215,25,25,25c13.785,0,25-11.215,25-25     S274.785,313.5,261,313.5z M261,353.5c-8.272,0-15-6.728-15-15s6.728-15,15-15c8.271,0,15,6.728,15,15S269.271,353.5,261,353.5z" id="XMLID_1465_"/><path d="M441,143.5c22.056,0,40-17.944,40-40s-17.944-40-40-40c-22.056,0-40,17.944-40,40     S418.944,143.5,441,143.5z M441,73.5c16.542,0,30,13.458,30,30s-13.458,30-30,30s-30-13.458-30-30S424.458,73.5,441,73.5z" id="XMLID_1462_"/><path d="M68.5,228.5c17.921,0,32.5-14.58,32.5-32.5s-14.579-32.5-32.5-32.5C50.579,163.5,36,178.08,36,196     S50.579,228.5,68.5,228.5z M68.5,173.5c12.406,0,22.5,10.093,22.5,22.5s-10.094,22.5-22.5,22.5C56.094,218.5,46,208.407,46,196     S56.094,173.5,68.5,173.5z" id="XMLID_1459_"/><circle cx="178.5" cy="41" id="XMLID_94_" r="7.5"/><circle cx="363.5" cy="71" id="XMLID_93_" r="7.5"/><circle cx="433.5" cy="196" id="XMLID_92_" r="7.5"/><circle cx="333.5" cy="471" id="XMLID_91_" r="7.5"/><circle cx="38.5" cy="441" id="XMLID_90_" r="7.5"/></g></g></g><g id="Layer_1"/></svg>